<?xml version="1.0" standalone="no"?>
<!DOCTYPE svg PUBLIC "-//W3C//DTD SVG 20010904//EN"
 "http://www.w3.org/TR/2001/REC-SVG-20010904/DTD/svg10.dtd">
<svg version="1.0" xmlns="http://www.w3.org/2000/svg"
 width="700.000000pt" height="700.000000pt" viewBox="0 0 700.000000 700.000000"
 preserveAspectRatio="xMidYMid meet">
<metadata>
Created by potrace 1.14, written by Peter Selinger 2001-2017
</metadata>
<g transform="translate(0.000000,700.000000) scale(0.100000,-0.100000)"
fill="#000000" stroke="none">
<path d="M2802 6333 c0 -368 -1 -678 -1 -690 l-1 -23 -710 0 -710 0 0 -709 c0
-558 3 -710 13 -713 22 -6 1397 -2 1404 5 3 4 7 323 7 710 l1 702 696 3 696 2
0 690 0 690 -697 0 -697 0 -1 -667z"/>
<path d="M4199 5603 c-5 -101 -3 -1382 2 -1393 6 -13 95 -15 713 -14 l706 1 0
-697 0 -697 -706 1 c-423 1 -708 -3 -712 -8 -4 -7 -7 -1341 -3 -1403 1 -10
150 -13 711 -13 l710 0 0 710 c0 669 1 710 18 711 9 0 320 1 690 1 l672 1 0
697 0 697 -667 1 c-368 0 -678 1 -690 1 l-23 1 0 710 0 710 -710 0 c-669 0
-710 -1 -711 -17z"/>
<path d="M0 3500 l0 -697 688 0 687 0 3 -711 2 -712 709 0 c558 0 710 -3 713
-12 2 -7 3 -318 2 -690 l-1 -678 697 0 697 0 0 690 0 690 -696 2 -696 3 -1
708 c-1 639 1 707 15 708 9 0 322 1 697 1 l681 1 0 693 c0 626 -2 694 -16 698
-9 2 -322 4 -697 3 l-681 0 0 -696 0 -696 -709 0 -709 0 -3 696 -2 696 -690 0
-690 0 0 -697z"/>
</g>
</svg>
